#!OML:ASF H:\MichaelJackson\Top Level 1\Subject 1\Session 1\male.ASF
:FULLY-SPECIFIED
:DEGREES
368
root 2.05658 14.887 18.8431 7.68576 30.5457 4.624
lowerback -1.29647 -1.37106 -4.51433
upperback -0.329458 -1.7163 -4.35048
thorax 0.38853 -0.846638 -1.96934
lowerneck -4.02708 -10.6958 -5.81069
upperneck 9.08642 -14.7502 7.88641
head 4.39703 -7.12644 2.47556
rclavicle -7.60351e-014 -2.38542e-015
rhumerus -66.8067 18.5964 -105.574
rradius 96.7714
rwrist -2.22065
rhand -4.46436 -20.8346
rfingers 7.12502
rthumb 21.308 -49.6832
lclavicle -7.60351e-014 -2.38542e-015
lhumerus -53.5731 -29.1586 105.46
lradius 70.4513
lwrist 12.0667
lhand 36.2384 21.5501
lfingers 7.12502
lthumb 59.2107 36.1331
rfemur -31.4102 -18.2349 -6.72871
rtibia 59.1823
rfoot -12.8383 -13.7109
rtoes -42.5201
lfemur -11.1738 -4.01444 8.38692
ltibia 33.4465
lfoot -37.4152 -21.7176
ltoes -30.4166
369
root 2.00466 14.8437 18.908 7.74717 29.0432 5.19202
lowerback -1.09637 -1.0652 -4.68689
upperback -0.226887 -1.31217 -4.65371
thorax 0.379019 -0.644331 -2.17676
lowerneck -4.16453 -10.5127 -5.51561
upperneck 8.96142 -14.5064 7.85994
head 4.3413 -6.99743 2.4402
rclavicle -5.79457e-014 1.11319e-014
rhumerus -66.4646 18.475 -104.089
rradius 96.9456
rwrist -4.16656
rhand 3.17188 -18.8892
rfingers 7.12502
rthumb 28.6248 -46.7168
lclavicle -5.79457e-014 1.11319e-014
lhumerus -53.3001 -29.685 105.185
lradius 70.7669
lwrist 13.7014
lhand 36.5694 23.4177
lfingers 7.12502
lthumb 59.4957 37.7167
rfemur -32.4347 -18.7441 -7.05851
rtibia 60.1666
rfoot -14.0645 -12.3889
rtoes -42.7095
lfemur -9.38501 -3.70733 7.58458
ltibia 32.6227
lfoot -37.7785 -17.7997
ltoes -32.6538
370
root 1.95636 14.8023 18.9707 7.7203 27.5511 5.70058
lowerback -0.83402 -0.764312 -4.83988
upperback -0.0996588 -0.919715 -4.91969
thorax 0.362176 -0.448055 -2.3583
lowerneck -4.31611 -10.323 -5.17573
upperneck 8.78811 -14.2514 7.80935
head 4.26835 -6.86342 2.39216
rclavicle 3.55825e-014 -4.05521e-014
rhumerus -65.7366 18.0503 -102.275
rradius 96.9658
rwrist -6.69032
rhand 11.543 -17.1007
rfingers 7.12502
rthumb 36.5883 -43.2705
lclavicle 3.55825e-014 -4.05521e-014
lhumerus -53.0711 -30.256 105.01
lradius 71.0149
lwrist 15.2457
lhand 36.6929 25.011
lfingers 7.12502
lthumb 59.6019 39.2026
rfemur -33.4481 -19.285 -7.32106
rtibia 61.1534
rfoot -15.2304 -10.9934
rtoes -42.742
lfemur -7.55885 -3.13354 6.75766
ltibia 31.8345
lfoot -37.7137 -13.8841
ltoes -34.4054
371
root 1.91157 14.7629 19.0328 7.63128 26.1169 6.15636
lowerback -0.541595 -0.484919 -5.00007
upperback 0.0482532 -0.5585 -5.13522
thorax 0.351787 -0.267796 -2.48637
lowerneck -4.46212 -10.1284 -4.80885
upperneck 8.56415 -13.9882 7.74915
head 4.17708 -6.72649 2.33908
rclavicle 3.27001e-014 -3.65764e-014
rhumerus -64.611 17.2965 -100.168
rradius 96.7956
rwrist -9.94532
rhand 20.1624 -15.7594
rfingers 7.12502
rthumb 44.6863 -39.3815
lclavicle 3.27001e-014 -3.65764e-014
lhumerus -52.8917 -30.81 104.948
lradius 71.1707
lwrist 16.5426
lhand 36.7136 26.1569
lfingers 7.12502
lthumb 59.6196 40.3304
rfemur -34.3742 -19.8823 -7.52578
rtibia 62.0783
rfoot -16.3898 -9.59594
rtoes -42.7109
lfemur -5.70127 -2.4272 5.95074
ltibia 30.9856
lfoot -37.2952 -10.145
ltoes -35.7017
372
root 1.8699 14.7253 19.0957 7.52009 24.7663 6.57093
lowerback -0.259123 -0.238409 -5.18966
upperback 0.203444 -0.241087 -5.29893
thorax 0.355385 -0.109966 -2.54717
lowerneck -4.58166 -9.92827 -4.42187
upperneck 8.29834 -13.718 7.69006
head 4.06827 -6.58741 2.28576
rclavicle 1.59028e-015 8.74653e-015
rhumerus -63.1097 16.1941 -97.8393
rradius 96.405
rwrist -13.9985
rhand 28.1737 -15.1287
rfingers 7.12502
rthumb 52.0577 -35.1999
lclavicle 1.59028e-015 8.74653e-015
lhumerus -52.7872 -31.2972 104.994
lradius 71.2361
lwrist 17.5009
lhand 36.6957 26.7918
lfingers 7.12502
lthumb 59.6043 40.9809
rfemur -35.1785 -20.5389 -7.69803
rtibia 62.9003
rfoot -17.6084 -8.21509
rtoes -42.6688
lfemur -3.82769 -1.71885 5.1824
ltibia 30.0013
lfoot -36.5911 -6.68249
ltoes -36.5731
373
root 1.83095 14.6894 19.16 7.43427 23.5222 6.96384
lowerback -0.0256471 -0.041395 -5.43025
upperback 0.350143 0.0128508 -5.41182
thorax 0.377299 0.0154298 -2.52907
lowerneck -4.66198 -9.71536 -4.0356
upperneck 8.00723 -13.4321 7.64816
head 3.94703 -6.44184 2.24065
rclavicle -2.67365e-014 -1.98785e-014
rhumerus -61.2875 14.7479 -95.3841
rradius 95.7936
rwrist -18.8019
rhand 34.4466 -15.3865
rfingers 7.12502
rthumb 57.6541 -31.4143
lclavicle -2.67365e-014 -1.98785e-014
lhumerus -52.7597 -31.6601 105.13
lradius 71.2155
lwrist 18.0982
lhand 36.6885 26.9081
lfingers 7.12502
lthumb 59.5981 41.1036
rfemur -35.8658 -21.2623 -7.87006
rtibia 63.6089
rfoot -18.8951 -6.83496
rtoes -42.6346
lfemur -1.97533 -1.13499 4.44195
ltibia 28.8443
lfoot -35.69 -3.52182
ltoes -37.1069
374
root 1.79437 14.6548 19.226 7.41532 22.3981 7.35231
lowerback 0.126089 0.0869388 -5.73426
upperback 0.475153 0.18007 -5.47736
thorax 0.421366 0.0965663 -2.42778
lowerneck -4.70927 -9.48086 -3.666
upperneck 7.71901 -13.1189 7.62449
head 3.8234 -6.28365 2.20592
rclavicle 8.94531e-015 -5.56597e-015
rhumerus -59.2165 13.0076 -92.9119
rradius 94.9916
rwrist -24.1442
rhand 37.9247 -16.4689
rfingers 7.12502
rthumb 60.6537 -29.5442
lclavicle 8.94531e-015 -5.56597e-015
lhumerus -52.7931 -31.8539 105.316
lradius 71.1172
lwrist 18.383
lhand 36.6831 26.5766
lfingers 7.12502
lthumb 59.5935 40.7767
rfemur -36.4842 -22.0647 -8.05864
rtibia 64.2265
rfoot -20.2152 -5.39354
rtoes -42.5521
lfemur -0.190734 -0.787473 3.70155
ltibia 27.5154
lfoot -34.6571 -0.644876
ltoes -37.3585
375
root 1.76005 14.621 19.2929 7.47858 21.394 7.7332
lowerback 0.191942 0.14604 -6.0646
upperback 0.56731 0.260036 -5.51353
thorax 0.47869 0.13347 -2.28186
lowerneck -4.75395 -9.22925 -3.34965
upperneck 7.22576 -12.7549 7.41538
head 4.02441 -6.13003 2.37158
rclavicle -2.78299e-015 -4.29375e-014
rhumerus -56.9799 10.9969 -90.5395
rradius 94.0653
rwrist -29.6295
rhand 37.7704 -17.9643
rfingers 7.12502
rthumb 60.5226 -31.184
lclavicle -2.78299e-015 -4.29375e-014
lhumerus -52.8867 -31.9033 105.518
lradius 70.9587
lwrist 18.4531
lhand 36.6452 25.9245
lfingers 7.12502
lthumb 59.5609 40.1576
rfemur -37.091 -22.9484 -8.24565
rtibia 64.7914
rfoot -21.516 -3.87496
rtoes -42.4047
lfemur 1.48888 -0.77044 2.93856
ltibia 26.052
lfoot -33.543 2.03159
ltoes -37.4159
